<?xml version="1.0" encoding="utf-8"?>
<!-- Generator: Adobe Illustrator 16.0.0, SVG Export Plug-In . SVG Version: 6.00 Build 0)  -->
<!DOCTYPE svg PUBLIC "-//W3C//DTD SVG 1.1//EN" "http://www.w3.org/Graphics/SVG/1.1/DTD/svg11.dtd">
<svg version="1.1" xmlns="http://www.w3.org/2000/svg" xmlns:xlink="http://www.w3.org/1999/xlink" x="0px" y="0px" width="100px"
	 height="100px" fill="#ffffff" viewBox="0 0 100 100" enable-background="new 0 0 100 100" xml:space="preserve">
<g id="icons">
	<g id="twitter">
		<path d="M36.603,86.113c-15.883,0-28.114-7.466-28.314-7.591c-0.702-0.439-0.915-1.363-0.477-2.066
			c0.439-0.702,1.363-0.916,2.066-0.478c1.268,0.791,31.345,19.071,57.795-5.419c13.213-12.235,17.204-28.754,14.308-40.32
			c-5.381,3.175-13.266,6.093-24.814,7.708c-1.827,0.256-3.605,0.404-5.326,0.457c-0.313,6.703-1.151,14.085-6.946,21.209
			c-4.826,5.933-10.956,8.182-17.265,6.328c-8.673-2.546-15.617-12.237-16.887-23.565c-2.121-18.928,1.798-24.022,2.252-24.541
			c0.304-0.347,0.754-0.528,1.211-0.509c0.46,0.025,0.884,0.261,1.148,0.639c0.13,0.186,11.979,16.731,33.607,17.438
			c0.324-8.239,0.893-15.946,11.402-19.949c8.773-3.342,16.807-0.827,21.495,6.724c0.642,1.035,1.21,2.149,1.701,3.332
			c6.213-4.756,6.943-9.313,6.954-9.393c0.11-0.816,0.856-1.398,1.675-1.294c0.817,0.103,1.399,0.838,1.303,1.655
			c-0.047,0.409-0.879,6.348-8.884,12.06c3.562,12.604-0.488,30.884-14.895,44.224C58.658,82.994,46.868,86.113,36.603,86.113z
			 M14.44,21.605c-0.894,2.651-2.04,8.629-0.716,20.436c1.121,10,7.324,18.84,14.75,21.021c5.148,1.515,10.021-0.335,14.093-5.342
			c5.155-6.338,5.969-13.12,6.27-19.319C30.284,37.792,18.473,26.264,14.44,21.605z M67.775,17c-2.004,0-4.134,0.414-6.344,1.256
			c-8.658,3.298-9.151,9.117-9.468,17.141c1.551-0.055,3.146-0.192,4.789-0.421c11.628-1.626,19.269-4.608,24.284-7.729
			c-0.484-1.248-1.062-2.416-1.728-3.489C76.548,19.312,72.51,17,67.775,17z"/>
	</g>
</g>
<g id="differantly.com">
</g>
</svg>
