<?xml version="1.0" encoding="utf-8"?>
<!-- Generator: Adobe Illustrator 18.0.0, SVG Export Plug-In . SVG Version: 6.00 Build 0)  -->
<!DOCTYPE svg PUBLIC "-//W3C//DTD SVG 1.1//EN" "http://www.w3.org/Graphics/SVG/1.1/DTD/svg11.dtd">
<svg version="1.1" id="Capa_3" xmlns="http://www.w3.org/2000/svg" xmlns:xlink="http://www.w3.org/1999/xlink" x="0px" y="0px"
	 viewBox="0 0 100 100" enable-background="new 0 0 100 100" xml:space="preserve">
<path fill="none" stroke="#FFFFFF" stroke-width="3" stroke-linecap="round" stroke-miterlimit="10" d="M66.4,83
	c-7.3-37.7-17.9-56.1-28-64.9"/>
<path fill="none" stroke="#FFFFFF" stroke-width="3" stroke-linecap="round" stroke-miterlimit="10" d="M38.3,18.1
	c11.2,19.8,8.8,23.5-24,29.3"/>
<path fill="none" stroke="#FFFFFF" stroke-width="3" stroke-linecap="round" stroke-miterlimit="10" d="M14.3,47.4
	c34.9,3.5,66.5-18.6,65.3-24.5"/>
<path fill="none" stroke="#FFFFFF" stroke-width="3" stroke-linecap="round" stroke-miterlimit="10" d="M27.4,76.3
	c11.2-18.7,34-28.9,57-23"/>
<path fill="none" stroke="#FFFFFF" stroke-width="3" stroke-linecap="round" stroke-miterlimit="10" d="M66.4,83
	c-4-30.7-1.4-31.5,18-29.8"/>
<path fill="none" stroke="#FFFFFF" stroke-width="3" stroke-linecap="round" stroke-miterlimit="10" d="M89.5,38.3
	c1.2,3.6,1.9,7.5,1.9,11.6c0,24.7-16.8,39.7-40.8,40.9C28,91.9,8.7,71.9,8.7,49.9S26.9,11,49.5,11c11.7,0,29.8,7.1,30.1,11.9"/>
</svg>
