<?xml version="1.0" encoding="utf-8"?>
<!-- Generator: Adobe Illustrator 16.0.0, SVG Export Plug-In . SVG Version: 6.00 Build 0)  -->
<!DOCTYPE svg PUBLIC "-//W3C//DTD SVG 1.1//EN" "http://www.w3.org/Graphics/SVG/1.1/DTD/svg11.dtd">
<svg version="1.1" xmlns="http://www.w3.org/2000/svg" xmlns:xlink="http://www.w3.org/1999/xlink" x="0px" y="0px" width="100px"
	 height="100px" fill="#ffffff" viewBox="0 0 100 100" enable-background="new 0 0 100 100" xml:space="preserve">
<g id="icons">
	<g id="linkedin">
		<path d="M20.193,91.409c-4.029,0-6.494-0.351-8.833-3.356c-2.157-2.774-2.135-4.843-1.987-18.306
			c0.052-4.639,0.121-10.992,0.121-19.256c0-6.478-0.051-11.832-0.092-16.133c-0.156-16.5-0.189-19.934,3.349-22.445
			c3.323-2.359,7.092-2.272,12.797-2.138c1.078,0.025,2.232,0.052,3.473,0.064c0.528-0.071,1.08-0.109,1.655-0.113
			C45.425,9.63,56.175,9.473,64.024,9.358c22.266-0.327,22.267-0.326,24.73,2.567c2.791,3.275,2.788,5.556,2.755,27.373
			c-0.004,2.76-0.009,5.84-0.009,9.284c0,4.187,0.012,7.951,0.022,11.334c0.065,20.459,0.085,26.634-2.709,29.436
			c-1.358,1.363-3.119,1.546-4.662,1.546c-1.772,0-4.013-0.207-5.624-1.821c-2.843-2.848-2.831-8.865-2.803-23.4l0.006-4.923
			c0-9.387-0.629-15.387-3.846-18.282c-1.966-1.77-5.045-2.406-9.416-1.946C49.768,41.863,47.542,65.05,47.223,76.541l0.001,6.412
			c0,0.815-0.651,1.481-1.467,1.5c-0.833,0.013-1.495-0.618-1.532-1.434c-0.019-0.43-0.128-3.21-0.002-7.204L44.222,59.92
			c0-10.407,0.357-21.54,0.361-21.651c0.027-0.828,0.747-1.464,1.548-1.45c0.828,0.027,1.478,0.72,1.45,1.548
			c-0.003,0.09-0.241,7.516-0.328,15.881c2.493-8.542,6.956-15.869,14.902-16.705c5.266-0.553,9.104,0.329,11.738,2.7
			c4.468,4.022,4.838,11.998,4.838,20.512l-0.006,4.929c-0.025,12.855-0.037,19.307,1.926,21.274c0.658,0.659,1.705,0.94,3.501,0.94
			c1.332,0,2.067-0.192,2.537-0.664c1.915-1.92,1.89-9.876,1.834-27.309c-0.011-3.386-0.022-7.153-0.022-11.344
			c0-3.445,0.005-6.527,0.009-9.288c0.032-21.369-0.014-23.047-2.038-25.422c-1.49-1.75-1.541-1.816-22.404-1.513
			c-6.741,0.099-15.621,0.228-27.336,0.324c1.763,1.978,2.681,4.729,2.681,7.39c0,2.479-0.754,4.784-2.123,6.49
			c-1.604,1.999-3.907,3.056-6.664,3.056c-6.789,0-10.357-4.972-10.373-9.884c-0.009-2.544,0.937-5.111,2.793-7.008
			c-3.889-0.046-6.456,0.144-8.558,1.634c-2.19,1.554-2.231,4.514-2.085,19.97c0.041,4.308,0.092,9.67,0.092,16.162
			c0,8.28-0.07,14.643-0.121,19.289c-0.143,13.051-0.109,14.547,1.355,16.431c1.688,2.172,3.109,2.245,8.264,2.184
			c0.796-0.009,1.661-0.02,2.607-0.02c1.857,0,2.837-0.223,3.381-0.771c1.458-1.469,1.422-6.736,1.354-16.297
			c-0.022-3.223-0.05-6.991-0.029-11.394c0.068-15.517-0.235-21.937-0.238-22c-0.04-0.828,0.598-1.531,1.425-1.571
			c0.852-0.05,1.531,0.597,1.571,1.425c0.003,0.063,0.311,6.544,0.242,22.16c-0.02,4.389,0.007,8.146,0.029,11.358
			c0.082,11.699,0.112,16.077-2.226,18.432c-1.446,1.457-3.503,1.657-5.51,1.657c-0.934,0-1.787,0.01-2.571,0.02
			C21.382,91.402,20.771,91.409,20.193,91.409z M29.206,12.841c-4.113,0.633-5.965,3.776-5.954,6.882
			c0.011,3.32,2.322,6.894,7.373,6.894c1.841,0,3.296-0.65,4.324-1.933c0.943-1.176,1.463-2.814,1.463-4.613
			c0-3.591-2.09-7.226-6.085-7.226C29.946,12.846,29.572,12.844,29.206,12.841z"/>
	</g>
</g>
<g id="differantly.com">
</g>
</svg>
